<?xml version="1.0" encoding="UTF-8"?>
<svg id="Layer_1" data-name="Layer 1" xmlns="http://www.w3.org/2000/svg" viewBox="0 0 2305.31 1433.03">
  <defs>
    <style>
      .cls-1 {
        fill: #ede8e0;
      }

      .cls-2 {
        fill: #c49a3c;
        stroke: #fff;
        stroke-miterlimit: 10;
      }

      .cls-3 {
        fill: #fff;
      }
    </style>
  </defs>
  <path class="cls-1" d="M0,707.71c8.59,4.28,21.36,8.18,29.59,1.42,5.49-5.22,5.13-13.71,4.17-20.69-.92-5.87-2.65-11.64-5-17.09-1.5-3.18-3.22-7.17-5.62-9.06.11,0,.18-.04.17-.04-.41.35-.63,1-.93,1.69-1.18,3.4-1.54,7.04-1.77,10.69-.43,8.8.53,17.84,3.19,26.22,3.6,11.1,9.88,21.57,18.14,29.81,6.04,5.88,13.49,10.98,21.99,10.92,14.32-.78,24.67-14.3,30.8-26.22,7.9-15.79,10.86-33.67,10.62-51.27,0,0-.4-27.87-.4-27.87l7.09,27.03c11.17,40.69,33.14,106.9,65.83,133.97,5.37,4.26,11.44,7.48,17.81,8.47,5.89.92,12.34.29,15.76-4.88,6.36-10.24,3.57-28.35,2.09-40.16-4.94-37.91-24.18-95.71-13.28-131.66,21.62-61.2,103.82,17.22,128.75,41.38,23.51,23.24,45.65,47.82,65.65,74.11,2.17,2.88,4.15,5.82,6.93,8.04,7.41,6.16,10.79-3.26,11.28-9.63,1.1-14.3-3.54-29.53-13.46-40.14,11.46,11.28,17.67,30,14.32,45.87-1.75,7.3-7.16,10.83-13.65,5.87-3.14-2.34-5.41-5.5-7.63-8.3-2.27-2.85-4.58-5.68-6.92-8.48-31.96-37.53-101.43-112.31-148.6-123.71-35.13-7.91-34.27,35.75-31.19,59.23,2.6,21.71,7.55,42.92,11.77,64.48,2.79,14.62,5.64,29.14,5.85,44.21.24,11.99-2.65,27.69-16.36,31.17-54.99,11.05-90.98-107.3-101.54-148.2,0,0,6.69-.84,6.69-.84.04,12.37-1.52,24.81-5.09,36.74-3.62,11.96-9.18,23.5-17.69,32.85-8.66,9.72-22.12,16.86-35.17,11.29-16.96-7.1-28.98-25.95-34.17-42.89-2.59-8.99-3.32-18.32-2.64-27.59.32-3.52,1.59-18.14,7.53-14.3,3.13,2.74,4.6,6.7,6.17,10.27,2.25,5.73,3.84,11.69,4.6,17.79,3.46,26.98-15.38,30.56-35.68,19.53h0Z"/>
  <path class="cls-1" d="M2006.56,704.94c19.39,3.73,40.4,1.2,57.87-8.06,36.14-19.18,48.37-62.54,51.56-100.65.18-8.7,5.05-13.07,13.59-9.19,4.99,2.36,8.93,5.71,12.95,9.24,7.62,6.9,14.35,14.47,20.82,22.22,31.75,39.12,58.13,82.76,76.87,129.57,10.36,27.82,20.77,61,11.84,90.61-7.39,22.86-27.44,33.03-50.21,34.85-46.97,4.62-77.96-32.12-86-75.15-2.71-15.42-3.29-31.82,3.15-46.5,11.73-23.56,36.49-38.64,61.8-43.24,43.65-7.78,79.72,18.37,101.04,54.61,10.34,17.24,17.78,36.02,23.47,55.23-3.26-9.45-6.95-18.75-11.19-27.78-12.44-26.59-29.96-52.62-56.04-67.28-30.21-17.46-68.53-12.72-95.03,9.38-10.84,9.07-19.69,21.03-20.96,35.48-2.75,28.16,7.17,58.93,27.45,78.92,14.54,14.37,35.02,20.23,55.04,17.17,17.8-2.13,33.31-10.6,38.92-28.51,10.36-34.46-8.63-80.23-23.09-111.92-17.01-35.76-37.96-69.9-62.5-101.02-6.2-7.7-12.68-15.22-19.77-21.87-3.4-3.13-7.16-6.38-11.19-8.38-1.25-.6-2.37-1.01-3.5-.91-.2.03-.27.07-.38.14-1.02.78-1.05,3.56-1.25,4.89-3.4,29.92-11.34,61.15-32.03,84.01-20.34,23.11-53.85,31.42-83.25,24.12h0Z"/>
  <ellipse class="cls-3" cx="2297.4" cy="816.45" rx="7.64" ry="7.23"/>
  <polygon class="cls-1" points="1274.32 958.65 1670.9 1213.17 1538.71 1088.87 1908.64 1352.26 1593.95 1071.11 1804.07 1217.11 1537.72 977.39 1705.42 1139.18 1467.68 965.55 1793.22 1261.51 1448.93 1011.92 1610.72 1167.79 1274.32 958.65"/>
  <path class="cls-1" d="M1660.76,1285.03l53.61,2.71s5.09,1.7,4.75-10.86.68-43.77.68-43.77l2.38,46.15s-.34,5.77,2.71,7.8,62.1,3.05,62.1,3.05l-60.06,1.7s-4.41-1.36-4.07,3.05,1.02,32.92,1.02,32.92l-4.41-34.27s.34-2.71-4.41-3.05-54.29-5.43-54.29-5.43Z"/>
  <circle class="cls-1" cx="2016.17" cy="1430.96" r="2.07"/>
  <path class="cls-1" d="M1470.97,920.94l116.81-.66s13.28-.42,13.78-13.13c.73-18.41.66-78.75.66-78.75l6.56,78.75s1.97,15.09,11.81,15.09,125.34,1.97,125.34,1.97l-125.35,1.44s-8.44-1.58-8.44,9.23,1.85,59.87,1.85,59.87l-11.26-63.42s-.53-6.38-14.58-6.73c-9.55-.24-117.18-3.66-117.18-3.66Z"/>
  <ellipse class="cls-2" cx="1450.82" cy="919.79" rx="1.63" ry="1.4"/>
  <path class="cls-1" d="M1051.96,631.53c0,2.3-1.99,4.17-4.44,4.17s-4.44-1.87-4.44-4.17,1.99-4.17,4.44-4.17,4.44,1.87,4.44,4.17Z"/>
  <path class="cls-1" d="M1026.6,628.93c-5.76-1.37-24.16-2.48-26.06.9-.73,1.3-.87,2.69.28,3.58,3.76,2.93,23.24-3.29,25.78-4.48Z"/>
  <path class="cls-1" d="M1025.44,636.94c-5.79,1.23-22.9,8.1-23.17,11.96-.1,1.49.37,2.8,1.78,3.12,4.65,1.04,19.6-12.93,21.38-15.08Z"/>
  <path class="cls-1" d="M1034.95,647.12c-2.96,3.51-10.25,15.85-8.69,18.31.6.95,1.47,1.52,2.47,1.03,3.28-1.6,6.1-17.18,6.22-19.34Z"/>
  <path class="cls-1" d="M1034.34,621.01c-2.48-3.86-12.12-14.47-14.93-13.71-1.08.29-1.88.96-1.71,2.06.56,3.6,14.62,10.9,16.64,11.65Z"/>
  <path class="cls-1" d="M993.71,639.78c-7.71-1.87-32.59-4.6-35.38-1.38-1.07,1.24-1.35,2.62.15,3.61,4.9,3.26,31.72-1.26,35.23-2.22Z"/>
  <g>
    <path class="cls-1" d="M10.17,578.06c34.79-2.05,67.81-3.87,98.54-5.47-29.9-.48-62.73,1.03-98.54,5.47Z"/>
    <path class="cls-1" d="M1404.79,602.82c-6.66-1.83-30.39-8.33-30.89-18.53-.51-10.54,24-20.19,71.38-38.44,45.47-17.51,54.84-17.29,72.07-31.57,14.6-12.11,16.31-19.27,32.26-28.83,20.32-12.18,38.84-13.33,51.48-15.1,22.57-3.16,54.22-12.18,92.66-38.44-45.47,17.59-83.32,25.88-109.13,30.2-47.47,7.94-64.44,4.15-106.38,16.47-49.29,14.48-39.06,23.59-80.99,33.63-42.92,10.28-71.6,5.04-120.11,26.08-7.93,3.44-14.31,6.68-18.53,8.92-1.86-9.23-3.84-25.83,2.06-44.61,7.55-24.06,23.7-37.91,35-47.36,5.79-4.84,22.49-18,59.71-30.2,47.54-15.58,54.5-5.3,85.79-17.85,31.61-12.67,50.83-33.72,72.07-56.97,19.12-20.93,32.41-41.16,55.56-76.39,13.81-21.02,30.35-47.89,63.34-63.77,2.95-1.42,5.45-2.47,7.16-3.16,9.68-12.63,80.34-40.5,80.34-40.5-24.98,6.97-44.24,12.2-55.58,15.26-29.95,8.09-38.63,10.2-50.67,17.44-15.28,9.18-17.64,15.58-32.69,28.33-15.04,12.74-30.58,20.11-61.03,34.33-20.64,9.64-48.16,21.49-81.73,33.24-31.22,3.91-57.19,8.37-76.28,11.99-71.15,13.49-82.29,22.18-88.23,27.74-16.47,15.43-20.36,22.87-38.04,50.09-11.81,18.19-36.86,27.17-36.86,27.17-27.41,7.56-47.73,36.15-47.73,36.15,5.46-14.25,11.48-36.75,5.91-61.91-3.13-14.11-9.45-24.49-21.97-44.66-27.1-43.65-43-50.1-47.02-77.26-.94-6.36-.46-8.62-2.6-27.65-2.43-21.59-3.65-32.38-5.62-38.69-7.98-25.58-29.52-40.28-41.92-48.74-7.45-5.08-24.46-16.42-48.49-19.45-11.12-1.4-19.62-.5-22.22-.25-19.46,1.83-59.99-.15-149.16-14.47,36.89,10.81,116.79,40.36,171.73,118.14,15.26,21.61,72.67,102.89,44.39,173.7-3,7.5-14.53,36.39-42.71,49.28-8.15,3.73-31.83,12.59-89.25-9.86-29.86-11.67-78.24-35.48-127.82-85.67l-242.74-238.46,253.85,299.15L348.38,0l343.59,375.21-249.57-202.56,357.61,360.93-379.16,29.85c35.83,11.7,71.66,23.38,107.49,35.08,35.46,11.58,54.65,17.86,82.3,17.99,13.64.06,26.3-1.39,62.96-10.34,98.97-24.17,104.53-37.48,134.92-31.93,39.64,7.23,68.19,36.79,78.25,47.22,15.62,16.17,21.29,28.42,30.58,43.17,52.84,83.87,138.39,114.74,161.9,123.23,31.62,11.41,54.61,13.37,74.22,3.57,9.73-4.86,16.35-11.48,20.38-16.24,5.19-3.66,15.17-18.31,15.17-18.31l.49,8.84c.47,8.5.33,28.26-12.5,45.54-17.68,23.82-47.29,26.53-59.83,27.68-50.15,4.6-90.69-25.54-125.02-51.79-61.01-46.67-113.62-113.46-120.55-122.34-21.05-26.98-34.12-47.48-62.81-58.52-29.46-11.34-58.28-6.12-75.71-2.97-35.97,6.51-41.53,17.88-92.04,35.63-39.7,13.95-59.55,20.89-80.16,19.3-25.6-1.98-51.95-16.91-104.65-46.76-32.12-18.19-56.72-34.63-97.97-43.79h0s-10.14-2.15-20.78-3.71c-6.31-.92-96.33,1.76-228.78,8.63,62.08.99,111.43,10.61,148.02,20.74,89.83,24.87,140.16,50.19,140.16,50.19,72.08,36.25,111.64,74.54,164.58,62.85,13.49-2.98,22.34-7.99,51.54-14.02,59.86-12.35,76.86-2.48,81.39.45,12.08,7.84,11.38,18.89,23.96,37.53,43.51,64.45,74.79,109.53,119.33,113.61,5.52.51,12.87.53,21.71-1.27,23.74-2.79,53.53,8.84,53.53,8.84-5.46-2.99-13.8-7.37-24.21-12.1-42.29-19.24-59.72-17.46-82.39-27.93-44.56-20.57-62.86-66.97-65.17-73.08-11.21-29.65-18.23-82.07,5.59-98.22,27.18-18.43,85.42,16.54,116.84,50.74,7.28,7.93,11.66,14.53,13.5,16.76,70.73,85.67,142.69,172.84,231.82,175.03,5.5.14,73.45.92,98.69-41.9,19.45-32.99,4.79-77.04-.93-94.22-9.46-28.43-24.46-46.84-31.93-55.83-28.17-33.91-60.08-47.64-76.18-54.34-12.61-5.24-30.35-11.04-32.31-7.55-.71,1.27.33,4.36,2.11,6.23,1.7,1.8,3.89,2.27,4.46,2.4,8.86,2.02,47.81,16.94,65.15,26.48,6.58,3.61,16.27,8.94,25.27,19.36,15.99,18.5,28.18,51.15,14.75,70.81-1.96,2.87-9.97,13.53-36.59,17.11-9.45,1.27-53.72,6.03-112.71-34.81-49.05-33.96-125.61-111.46-105.62-151.06,28.56-56.58,256.4-40.18,374.27,51.41,13.77,10.7,37.19,30.94,76.04,47,22.87,9.45,88.57,36.61,159.47,17.43,55.85-15.11,83.64-50.51,153.66-49.11,6.53.13,11.36.63,14.76.83,110.6,6.27,221.1,14.28,331.51,24.02-131.51-12.4-549.3-52.54-628.01-74.13ZM1168.28,536.1c-29.89,5.86-62.02-14.64-77.2-38.6-22.21-35.05-11.86-83.4-10.29-90.71,2.37-11.07,5.47-18.46,4.5-31.52-1.59-21.58-12.75-38.13-19.3-47.61-13.32-19.28-18.99-17.2-26.38-29.59-15.21-25.52-.17-49.42-3.22-71.41-3.2-23.14-27.55-52.29-119.66-79.13,21.46-1.39,48.26.39,76.55,10.94,21.89,8.16,56.8,21.18,68.84,51.47,7.05,17.74-1.75,21.29,5.15,49.54,5,20.49,13.59,34.83,27.02,57.26,19.9,33.24,24.03,29.8,29.59,45.68,9.33,26.62-.99,39.93,1.29,71.41,1.22,16.89,6.27,41.69,25.09,71.41-2.71-21.02,2.15-34.16,6.43-41.82,7.34-13.12,16.82-17,63.69-44.39,31.03-18.13,35.55-21.5,39.89-25.09,22.96-19.03,19.97-24.88,34.27-39.19,13.08-13.08,45.32-33.17,108.54-33.51,56.93-.3,64.67-6.9,86.85-15.44,31.06-11.96,53.08-30.49,66.91-44.39-8.25,19.61-25.79,52.86-61.12,79.13-38.94,28.96-79.92,34.89-93.28,36.67-39.48,5.24-55.73,1.2-85.94,10.71-36.82,11.59-51.01,31.64-57.52,39.47-25.56,30.72-19.06,46.69-43.67,81.84-11.02,15.74-29.02,23.35-47.04,26.88Z"/>
  </g>
  <path class="cls-1" d="M2032.8,676.95c-59.67-.28-120.3,2.66-179.86,6.58-65.88,4.58-137.27,11.5-202.98,20.03-27.06,3.22-56.14,7.72-83.21,11.46-22.01,3.68-61.08,9.6-82.87,13.73-16.88,3.09-42.17,7.68-59.03,10.76-9.4,1.93-48.95,10.09-58.77,12.11-27.88,5.56-65.71,14.84-93.67,21.08,28.17-6.61,65.72-16.21,93.46-22.04,128.36-28.28,260.37-48.5,391.21-61.05,91.43-8.31,183.87-13.93,275.7-12.67h0Z"/>
  <path class="cls-1" d="M374.53,345.12h70.95s8.39,0,8.01-13.35-.38-96.13-.38-96.13l5.72,99.56s.76,6.87,4.58,8.01,85.07-.38,85.07-.38l-81.63,4.96s-7.25,1.14-7.63,6.87,1.91,88.12,1.91,88.12l-6.87-88.88s-1.53-4.96-6.87-4.96-72.86-3.81-72.86-3.81Z"/>
  <path class="cls-1" d="M421.46,411.12l154.49-2.67s8.39-2.29,8.39-12.97.38-125.5.38-125.5l4.58,133.51s4.58,7.25,9.92,7.63,165.18-.76,165.18-.76l-166.7,3.43s-8.77,2.29-9.16,13.35,1.14,96.89,1.14,96.89l-6.48-100.71s.38-9.16-9.16-10.68-152.59-1.53-152.59-1.53Z"/>
  <path class="cls-1" d="M1817.2,389.65c-19.93,16.69-45.47,31.11-67.34,45.36-26.69,16.95-52.7,35.01-80.32,50.46-12.11,6.11-24.67,11.69-37.56,15.95-17.15,5.84-35.21,8.52-52.68,12.85-53.46,12.99-92.98,56.19-118.23,103.22,2.04-3.72,4.29-8.4,6.36-11.96,4.85-8.64,10.6-17.64,16.37-25.73,23.07-32.13,55.9-58.53,94.81-68.17,17.53-4.43,35.34-7.16,52.42-13.05,12.72-4.13,25.23-9.61,37.21-15.58,27.56-15.31,53.68-33.17,80.61-49.59,22.03-13.93,47.85-27.76,68.35-43.77h0Z"/>
  <path class="cls-1" d="M1693.74,431.92c32.12-6.77,64.34-14.05,94.78-26.52,10.07-4.25,19.9-9.15,28.68-15.75-27.42,25.61-86.47,38.61-123.46,42.27h0Z"/>
  <ellipse class="cls-1" cx="355.7" cy="344.51" rx="2.41" ry="1.97"/>
</svg>